<?xml version="1.0" encoding="UTF-8" standalone="no" ?>
<!DOCTYPE svg PUBLIC "-//W3C//DTD SVG 1.1//EN" "http://www.w3.org/Graphics/SVG/1.1/DTD/svg11.dtd">
<svg xmlns="http://www.w3.org/2000/svg" xmlns:xlink="http://www.w3.org/1999/xlink" version="1.1" width="40" height="40" viewBox="0 0 40 40" xml:space="preserve">
<desc>Created with Fabric.js 3.6.3</desc>
<defs>
</defs>
<g transform="matrix(0.43 0 0 0.43 85.29 19.71)"  >
<g style=""   >
		<g transform="matrix(0.97 0 0 0.97 -150.44 0.5)"  >
<polygon style="stroke: rgb(255,255,255); stroke-width: 10; stroke-dasharray: none; stroke-linecap: butt; stroke-dashoffset: 0; stroke-linejoin: round; stroke-miterlimit: 4; fill: rgb(255,255,255); fill-rule: nonzero; opacity: 1;" vector-effect="non-scaling-stroke"  points="-19.9,34.5 -39.8,0 -19.9,-34.5 19.9,-34.5 39.8,0 19.9,34.5 " />
</g>
		<g transform="matrix(0.02 0 0 -0.02 -150.47 0.67)"  >
<path style="stroke: none; stroke-width: 1; stroke-dasharray: none; stroke-linecap: butt; stroke-dashoffset: 0; stroke-linejoin: miter; stroke-miterlimit: 4; fill: rgb(0,0,0); fill-rule: nonzero; opacity: 1;"  transform=" translate(-3514.66, -4179.43)" d="M 2662 5949 c -85 -14 -160 -56 -232 -130 c -52 -52 -89 -108 -180 -268 c -63 -111 -131 -230 -151 -264 c -135 -234 -248 -430 -351 -607 c -65 -113 -140 -247 -166 -299 c -42 -85 -46 -101 -50 -181 c -7 -143 -10 -137 358 -770 c 152 -261 207 -358 338 -585 c 63 -110 129 -222 147 -250 c 55 -86 139 -146 254 -181 c 36 -11 207 -14 886 -14 c 935 0 886 -3 1005 68 c 81 49 122 101 240 307 c 51 88 152 264 225 390 c 72 127 210 365 306 530 c 181 313 207 374 208 480 c 1 58 -20 149 -48 203 c -10 20 -59 108 -110 195 c -105 181 -196 338 -446 772 c -241 419 -260 449 -314 497 c -55 49 -146 94 -220 108 c -67 12 -1622 12 -1699 -1 z m 1758 -141 c 30 -15 74 -46 96 -70 c 26 -26 124 -186 255 -413 c 117 -203 267 -464 334 -580 c 286 -493 285 -492 270 -610 c -7 -63 -26 -100 -165 -340 c -122 -211 -195 -335 -240 -415 c -20 -36 -89 -155 -152 -265 c -64 -110 -150 -258 -191 -330 c -82 -143 -134 -202 -205 -237 l -47 -23 l -860 0 l -860 0 l -47 23 c -92 46 -118 81 -309 412 c -238 415 -553 961 -594 1030 c -44 76 -55 112 -55 189 c 1 86 11 111 112 288 c 47 81 145 252 218 378 c 73 127 175 304 227 395 c 269 467 285 493 341 533 c 95 69 46 66 977 64 l 840 -2 l 55 -27 z" stroke-linecap="round" />
</g>
		<g transform="matrix(0.02 0 0 -0.02 -150.41 0.78)"  >
<path style="stroke: none; stroke-width: 1; stroke-dasharray: none; stroke-linecap: butt; stroke-dashoffset: 0; stroke-linejoin: miter; stroke-miterlimit: 4; fill: rgb(0,0,0); fill-rule: nonzero; opacity: 1;"  transform=" translate(-3511.85, -4179.37)" d="M 2688 5736 c -56 -15 -111 -55 -142 -104 c -13 -20 -68 -113 -122 -207 c -53 -93 -112 -195 -129 -225 c -40 -70 -205 -355 -280 -485 c -201 -345 -265 -464 -271 -502 c -13 -84 -37 -36 406 -803 c 106 -184 236 -409 288 -500 c 115 -203 145 -242 202 -272 l 45 -23 l 812 -3 c 793 -2 812 -2 865 18 c 30 11 68 35 85 52 c 17 18 133 211 258 428 c 305 529 362 627 471 816 c 101 175 120 228 104 298 c -5 25 -66 142 -136 263 c -69 120 -152 263 -183 318 c -149 258 -258 447 -301 520 c -26 44 -78 134 -115 200 c -79 140 -104 170 -165 199 c -45 21 -53 21 -845 23 c -622 2 -810 -1 -847 -11 z m 636 -222 c 9 -8 16 -19 16 -24 c 0 -11 -29 -40 -40 -40 c -37 0 -54 42 -28 68 c 16 16 33 15 52 -4 z m -402 -31 c 23 -21 23 -55 -1 -77 c -48 -44 -122 15 -87 70 c 19 28 60 32 88 7 z m 186 -195 c 17 -17 15 -55 -4 -62 c -28 -11 -42 -6 -49 14 c -14 46 22 79 53 48 z m -453 -93 c 0 -27 -3 -30 -30 -30 c -21 0 -31 5 -33 18 c -6 33 6 49 35 45 c 24 -3 28 -8 28 -33 z m 1377 24 c 83 -17 226 -90 290 -148 c 67 -61 140 -173 162 -251 c 35 -117 29 -278 -12 -385 c -28 -74 -99 -172 -162 -224 c -54 -45 -158 -108 -164 -99 c -2 2 -20 32 -42 67 c -147 241 -412 333 -710 246 c -26 -8 -37 16 -59 121 c -24 118 -3 296 24 199 c 6 -22 24 -62 40 -90 l 29 -50 l 138 3 c 115 3 153 0 219 -17 c 99 -26 204 -77 275 -136 c 30 -25 58 -45 61 -45 c 11 0 85 104 112 156 c 62 123 72 236 27 325 c -53 105 -209 203 -374 235 c -88 18 -150 15 -287 -13 c -16 -3 -29 -1 -29 4 c 0 14 153 84 214 99 c 65 16 180 17 248 3 z m -929 -320 c 72 -117 33 -262 -83 -314 c -34 -16 -48 -17 -81 -8 c -44 11 -48 8 -58 -41 c -4 -19 -14 -32 -25 -34 c -26 -5 -35 14 -26 54 c 14 63 57 120 121 163 c 34 23 57 41 52 41 c -18 0 -99 -57 -125 -89 c -27 -31 -27 -31 -39 -10 c -15 28 -6 88 17 124 c 11 17 44 40 80 56 c 58 26 104 70 104 99 c 0 26 36 2 63 -41 z m 682 -59 c 18 -17 27 -19 48 -11 c 57 22 99 -2 184 -103 c 27 -32 37 -38 63 -34 c 36 5 37 0 9 -36 c -26 -33 -69 -56 -107 -56 c -65 0 -152 46 -180 95 c -7 14 -15 13 -63 -9 c -67 -32 -140 -34 -185 -7 c -32 20 -64 74 -64 110 c 0 22 14 28 25 11 c 12 -20 56 -9 106 25 c 62 42 128 48 164 15 z m 882 -355 c 39 -11 80 -69 93 -130 c 32 -152 -43 -277 -219 -368 c -40 -20 -78 -34 -86 -31 c -22 9 -20 97 1 115 c 9 8 44 27 78 44 c 78 39 117 88 124 154 c 9 96 -19 132 -82 106 c -43 -18 -76 -19 -76 -2 c 1 6 11 32 23 57 c 17 34 31 48 57 57 c 34 11 42 11 87 -2 z m -1809 -54 c 58 -29 143 -44 208 -37 c 160 17 193 18 228 6 c 42 -14 44 -21 12 -63 c -13 -18 -38 -59 -56 -92 c -65 -120 -93 -154 -138 -171 c -53 -21 -133 -14 -247 21 c -95 29 -151 66 -195 131 c -60 86 -34 182 60 226 c 22 11 86 0 128 -21 z m 888 -42 c 203 -63 335 -207 399 -437 c 28 -98 18 -234 -25 -335 c -95 -228 -276 -332 -375 -216 c -45 55 -30 128 50 239 c 82 114 111 190 71 190 c -15 0 -99 -129 -211 -325 c -38 -66 -80 -136 -95 -155 c -117 -154 -182 -243 -213 -290 c -61 -95 -119 -140 -182 -140 c -104 0 -180 109 -155 222 c 17 81 84 197 160 281 c 76 81 86 111 50 147 c -57 57 -217 -18 -298 -138 c -9 -13 -30 -61 -47 -105 c -36 -95 -64 -122 -130 -122 c -47 0 -84 21 -119 69 c -18 24 -21 40 -19 121 c 4 172 56 313 142 387 c 34 29 322 197 391 228 c 28 12 46 38 137 195 c 86 147 115 175 198 196 c 65 15 201 10 271 -12 z m 644 -239 c 17 -17 20 -33 20 -122 c 0 -56 5 -139 12 -183 c 11 -78 11 -83 -11 -119 c -13 -20 -48 -57 -78 -81 c -57 -47 -94 -56 -127 -32 c -16 12 -17 19 -7 72 c 16 85 13 212 -5 280 c -9 33 -17 66 -18 74 c 0 7 28 31 64 53 c 36 22 74 48 85 59 c 25 24 40 24 65 -1 z" stroke-linecap="round" />
</g>
		<g transform="matrix(0.02 0 0 -0.02 -196.06 56.68)"  >
<path style="stroke: none; stroke-width: 1; stroke-dasharray: none; stroke-linecap: butt; stroke-dashoffset: 0; stroke-linejoin: miter; stroke-miterlimit: 4; fill: rgb(0,0,0); fill-rule: nonzero; opacity: 1;"  transform=" translate(-1334, -1591.56)" d="M 1285 1851 c -126 -33 -197 -128 -197 -261 c 0 -112 54 -198 152 -243 c 63 -30 179 -29 236 0 c 39 21 104 84 104 102 c 0 5 -22 20 -50 33 l -49 25 l -27 -28 c -105 -110 -276 4 -234 155 c 31 113 161 150 236 69 l 24 -26 l 51 23 c 54 26 55 32 16 81 c -46 59 -174 93 -262 70 z" stroke-linecap="round" />
</g>
		<g transform="matrix(0.02 0 0 -0.02 -149.99 56.67)"  >
<path style="stroke: none; stroke-width: 1; stroke-dasharray: none; stroke-linecap: butt; stroke-dashoffset: 0; stroke-linejoin: miter; stroke-miterlimit: 4; fill: rgb(0,0,0); fill-rule: nonzero; opacity: 1;"  transform=" translate(-3494.4, -1592)" d="M 3415 1851 c -113 -28 -195 -134 -195 -253 c 0 -115 52 -203 148 -249 c 66 -33 187 -33 255 0 c 161 78 196 304 68 432 c -67 68 -174 94 -276 70 z m 166 -131 c 59 -43 77 -136 39 -210 c -50 -98 -204 -98 -255 0 c -31 59 -12 172 34 207 c 48 37 131 38 182 3 z" stroke-linecap="round" />
</g>
		<g transform="matrix(0.02 0 0 -0.02 -184.48 56.72)"  >
<path style="stroke: none; stroke-width: 1; stroke-dasharray: none; stroke-linecap: butt; stroke-dashoffset: 0; stroke-linejoin: miter; stroke-miterlimit: 4; fill: rgb(0,0,0); fill-rule: nonzero; opacity: 1;"  transform=" translate(-1877.52, -1589.89)" d="M 1775 1808 c -9 -24 -40 -104 -67 -178 c -28 -74 -61 -162 -73 -195 c -43 -115 -46 -105 33 -105 l 69 0 l 12 40 l 12 40 l 113 0 l 113 0 l 12 -40 l 12 -40 l 69 0 l 70 0 l -35 93 c -63 170 -153 406 -160 417 c -3 5 -41 10 -85 10 l -78 0 l -17 -42 z m 135 -170 c 17 -51 34 -99 37 -105 c 3 -10 -14 -13 -71 -13 c -42 0 -76 3 -76 7 c 0 18 65 203 71 203 c 4 0 22 -42 39 -92 z" stroke-linecap="round" />
</g>
		<g transform="matrix(0.02 0 0 -0.02 -173.07 56.72)"  >
<path style="stroke: none; stroke-width: 1; stroke-dasharray: none; stroke-linecap: butt; stroke-dashoffset: 0; stroke-linejoin: miter; stroke-miterlimit: 4; fill: rgb(0,0,0); fill-rule: nonzero; opacity: 1;"  transform=" translate(-2411, -1590)" d="M 2190 1590 l 0 -260 l 65 0 l 65 0 l 0 90 l 0 90 l 39 0 l 39 0 l 43 -89 l 44 -90 l 73 0 l 74 -1 l -53 97 c -39 72 -48 98 -38 102 c 8 2 28 19 45 37 c 52 54 57 154 11 218 c -38 53 -84 66 -254 66 l -153 0 l 0 -260 z m 292 133 c 22 -20 23 -61 1 -85 c -13 -14 -31 -18 -90 -18 l -73 0 l 0 60 l 0 60 l 72 0 c 52 0 76 -4 90 -17 z" stroke-linecap="round" />
</g>
		<g transform="matrix(0.02 0 0 -0.02 -161.73 56.72)"  >
<path style="stroke: none; stroke-width: 1; stroke-dasharray: none; stroke-linecap: butt; stroke-dashoffset: 0; stroke-linejoin: miter; stroke-miterlimit: 4; fill: rgb(0,0,0); fill-rule: nonzero; opacity: 1;"  transform=" translate(-2942.5, -1590)" d="M 2720 1590 l 0 -260 l 158 0 c 179 0 216 7 258 51 c 26 27 29 37 29 91 c 0 58 -2 62 -40 96 l -41 35 l 33 31 c 66 61 50 160 -31 197 c -34 16 -67 19 -203 19 l -163 0 l 0 -260 z m 307 124 c 3 -9 1 -26 -6 -40 c -11 -24 -14 -25 -93 -22 l -83 3 l -1 40 l 0 40 l 70 5 c 75 5 103 -1 113 -26 z m 1 -186 c 7 -7 12 -24 12 -38 c 0 -43 -17 -50 -112 -50 l -88 0 l 0 50 l 0 50 l 88 0 c 55 0 92 -4 100 -12 z" stroke-linecap="round" />
</g>
		<g transform="matrix(0.02 0 0 -0.02 -137.37 56.72)"  >
<path style="stroke: none; stroke-width: 1; stroke-dasharray: none; stroke-linecap: butt; stroke-dashoffset: 0; stroke-linejoin: miter; stroke-miterlimit: 4; fill: rgb(0,0,0); fill-rule: nonzero; opacity: 1;"  transform=" translate(-4085, -1590)" d="M 3840 1590 l 0 -260 l 65 0 l 65 0 l 0 155 c 0 85 4 155 8 155 c 4 0 39 -44 77 -97 c 38 -54 87 -124 109 -155 l 41 -57 l 63 -1 l 62 0 l 0 260 l 0 260 l -65 0 l -65 0 l 0 -145 c 0 -80 -4 -145 -8 -145 c -5 0 -31 32 -58 70 c -27 39 -73 104 -103 145 l -53 75 l -69 0 l -69 0 l 0 -260 z" stroke-linecap="round" />
</g>
		<g transform="matrix(2.26 0 0 2.26 148.05 -12.4)" style=""  >
		<text xml:space="preserve" font-family="'Open Sans', sans-serif" font-size="18" font-style="normal" font-weight="normal" style="stroke: none; stroke-width: 1; stroke-dasharray: none; stroke-linecap: butt; stroke-dashoffset: 0; stroke-linejoin: miter; stroke-miterlimit: 4; fill: rgb(0,0,0); fill-rule: nonzero; opacity: 1; white-space: pre;" ><tspan x="-53.71" y="5.65" >CARBONAUT</tspan></text>
</g>
</g>
</g>
</svg>